<svg width="4733" height="746" viewBox="0 0 4733 746" fill="none" xmlns="http://www.w3.org/2000/svg">
<path d="M255.54 195.355C258.886 198.774 256.464 204.534 251.68 204.534H186.851C185.637 204.534 184.455 204.121 183.501 203.371C157.762 183.14 137.988 168.965 123.739 130.016C113.007 93.2943 118.443 65.5405 146.467 39.0797C174.118 12.9716 215.281 9.30415 236.746 24.4602C255.999 40.5642 292.96 76.2037 305.56 85.7162C318.818 95.7254 332.286 87.7056 336.495 82.6536L392.683 27.0812C432.456 -7.74642 467.984 -7.99614 508.215 20.6712C548.318 49.2476 553.637 93.0155 523.029 140.926C522.836 141.227 522.61 141.513 522.361 141.769L463.088 202.893C462.071 203.942 460.672 204.534 459.211 204.534H396.334C391.511 204.534 389.097 198.701 392.522 195.305C417.493 170.547 457.024 131.328 469.396 118.958C469.614 118.74 469.803 118.511 469.978 118.258C499.693 75.5496 448.159 49.7995 421.724 75.707C402.784 92.9681 360.864 131.785 344.702 148.962C328.54 166.138 309.348 156.119 301.772 148.962L225.382 75.707C210.862 62.3506 195.584 61.2139 182.452 74.3492C166.196 90.6102 168.516 103.774 178.375 118.227C178.565 118.507 178.786 118.769 179.026 119.006L230.433 169.706L255.54 195.355Z" fill="white"/>
<path fill-rule="evenodd" clip-rule="evenodd" d="M66.6391 711C63.6563 711 61.2383 708.582 61.2383 705.599V422.676C61.2383 420.27 59.6442 418.175 57.3868 417.344C36.1073 409.506 0 383.26 0 329.572C0 273.337 39.6143 243.124 60.3096 234.588C60.933 234.331 61.5844 234.215 62.2587 234.215H585.547C586.177 234.215 586.785 234.316 587.373 234.541C608.474 242.617 649 272.275 649 329.572C649 384.169 612.204 409.952 590.479 417.404C588.158 418.2 586.499 420.325 586.499 422.779V705.599C586.499 708.582 584.081 711 581.098 711H66.6391ZM79.5467 363.041H565.317C565.965 363.041 566.605 362.934 567.198 362.674C574.161 359.619 586.499 349.397 586.499 329.572C586.499 309.949 574.412 298.223 567.414 294.179C566.687 293.76 565.86 293.576 565.021 293.576H79.5467C73.4439 294.418 61.2383 302.796 61.2383 329.572C61.2383 356.348 73.4439 363.041 79.5467 363.041ZM529.68 424.015C529.68 421.032 527.262 418.614 524.279 418.614H124.089C121.107 418.614 118.689 421.032 118.689 424.015V645.606C118.689 648.589 121.107 651.007 124.089 651.007H291.04V496.289C291.04 465.861 324.338 454.505 345.354 451.952C348.425 451.579 351.016 454.05 351.016 457.145V645.606C351.016 648.589 353.434 651.007 356.416 651.007H524.279C527.262 651.007 529.68 648.589 529.68 645.606V424.015Z" fill="white"/>
<path d="M849.733 614V247.219H1007.97C1048.84 247.219 1080.46 255.428 1102.81 271.846C1125.52 288.264 1136.87 311.493 1136.87 341.534C1136.87 361.445 1132.15 378.212 1122.72 391.836C1113.64 405.459 1101.07 415.764 1085 422.75C1069.28 429.736 1051.99 433.229 1033.12 433.229L1042.03 420.654C1065.43 420.654 1085.52 424.322 1102.29 431.658C1119.4 438.644 1132.68 449.298 1142.11 463.62C1151.54 477.592 1156.26 495.058 1156.26 516.017C1156.26 547.106 1144.73 571.209 1121.67 588.325C1098.97 605.442 1064.56 614 1018.45 614H849.733ZM888.507 582.038H1017.93C1050.07 582.038 1074.69 576.623 1091.81 565.795C1108.92 554.616 1117.48 536.976 1117.48 512.873C1117.48 489.12 1108.92 471.829 1091.81 461C1074.69 449.822 1050.07 444.233 1017.93 444.233H884.315V412.271H1005.35C1034.7 412.271 1057.4 406.682 1073.47 395.503C1089.89 384.325 1098.1 367.733 1098.1 345.726C1098.1 323.37 1089.89 306.777 1073.47 295.949C1057.4 284.771 1034.7 279.182 1005.35 279.182H888.507V582.038ZM1405.09 617.144C1377.5 617.144 1351.82 612.603 1328.07 603.521C1304.67 594.089 1284.23 580.99 1266.77 564.223C1249.65 547.106 1236.2 527.37 1226.42 505.014C1216.99 482.308 1212.27 457.507 1212.27 430.61C1212.27 403.712 1216.99 379.086 1226.42 356.729C1236.2 334.024 1249.65 314.288 1266.77 297.521C1284.23 280.404 1304.67 267.305 1328.07 258.223C1351.47 248.791 1377.15 244.075 1405.09 244.075C1432.69 244.075 1458.19 248.791 1481.59 258.223C1505 267.305 1525.26 280.229 1542.38 296.997C1559.84 313.764 1573.29 333.5 1582.72 356.206C1592.5 378.911 1597.39 403.712 1597.39 430.61C1597.39 457.507 1592.5 482.308 1582.72 505.014C1573.29 527.719 1559.84 547.455 1542.38 564.223C1525.26 580.99 1505 594.089 1481.59 603.521C1458.19 612.603 1432.69 617.144 1405.09 617.144ZM1405.09 582.562C1427.1 582.562 1447.36 578.894 1465.88 571.558C1484.74 563.873 1500.98 553.219 1514.6 539.596C1528.58 525.623 1539.41 509.555 1547.09 491.39C1554.78 472.877 1558.62 452.616 1558.62 430.61C1558.62 408.603 1554.78 388.517 1547.09 370.353C1539.41 351.839 1528.58 335.771 1514.6 322.147C1500.98 308.175 1484.74 297.521 1465.88 290.185C1447.36 282.5 1427.1 278.658 1405.09 278.658C1383.09 278.658 1362.65 282.5 1343.79 290.185C1324.93 297.521 1308.51 308.175 1294.54 322.147C1280.91 335.771 1270.08 351.839 1262.05 370.353C1254.37 388.517 1250.52 408.603 1250.52 430.61C1250.52 452.267 1254.37 472.353 1262.05 490.866C1270.08 509.38 1280.91 525.623 1294.54 539.596C1308.51 553.219 1324.93 563.873 1343.79 571.558C1362.65 578.894 1383.09 582.562 1405.09 582.562ZM1620.17 614L1770.55 410.699V440.565L1629.08 247.219H1673.62L1792.56 408.603L1775.27 409.127L1894.21 247.219H1936.13L1796.23 437.945V410.699L1946.08 614H1901.02L1774.22 441.613H1790.46L1664.71 614H1620.17ZM2120.7 621.336C2090.66 621.336 2061.66 617.668 2033.72 610.332C2006.12 602.647 1983.59 592.866 1966.13 580.99L2000.18 504.49C2016.6 514.969 2035.47 523.702 2056.77 530.688C2078.43 537.325 2099.91 540.644 2121.22 540.644C2135.54 540.644 2147.07 539.421 2155.8 536.976C2164.54 534.182 2170.82 530.688 2174.67 526.497C2178.86 521.955 2180.95 516.716 2180.95 510.777C2180.95 502.394 2177.11 495.757 2169.43 490.866C2161.74 485.976 2151.79 481.959 2139.56 478.815C2127.33 475.671 2113.71 472.527 2098.69 469.384C2084.02 466.24 2069.17 462.223 2054.15 457.332C2039.48 452.442 2026.03 446.154 2013.81 438.469C2001.58 430.435 1991.63 420.13 1983.94 407.555C1976.26 394.63 1972.41 378.387 1972.41 358.825C1972.41 336.819 1978.35 316.908 1990.23 299.093C2002.45 281.277 2020.62 266.956 2044.72 256.127C2068.82 245.298 2098.87 239.884 2134.85 239.884C2158.95 239.884 2182.53 242.678 2205.58 248.267C2228.99 253.507 2249.77 261.366 2267.93 271.846L2235.97 348.87C2218.51 339.438 2201.22 332.452 2184.1 327.911C2166.98 323.021 2150.39 320.575 2134.32 320.575C2120 320.575 2108.47 322.147 2099.74 325.291C2091.01 328.086 2084.72 331.928 2080.88 336.819C2077.03 341.709 2075.11 347.298 2075.11 353.586C2075.11 361.62 2078.78 368.082 2086.12 372.973C2093.8 377.514 2103.76 381.356 2115.98 384.5C2128.56 387.295 2142.18 390.264 2156.85 393.408C2171.87 396.551 2186.72 400.569 2201.39 405.459C2216.41 410 2230.03 416.288 2242.26 424.322C2254.49 432.007 2264.27 442.312 2271.6 455.236C2279.29 467.812 2283.13 483.705 2283.13 502.918C2283.13 524.226 2277.02 543.962 2264.79 562.127C2252.91 579.942 2234.92 594.264 2210.82 605.092C2187.07 615.921 2157.03 621.336 2120.7 621.336ZM2500.3 621.336C2446.15 621.336 2403.88 606.49 2373.49 576.798C2343.1 547.106 2327.91 505.014 2327.91 450.521V247.219H2431.66V447.377C2431.66 478.815 2437.77 501.346 2449.99 514.969C2462.57 528.592 2479.69 535.404 2501.34 535.404C2523 535.404 2539.94 528.592 2552.17 514.969C2564.39 501.346 2570.51 478.815 2570.51 447.377V247.219H2672.68V450.521C2672.68 505.014 2657.49 547.106 2627.1 576.798C2596.71 606.49 2554.44 621.336 2500.3 621.336ZM2742.96 614V247.219H2910.64C2944.17 247.219 2972.99 252.634 2997.09 263.462C3021.54 274.291 3040.41 290.01 3053.68 310.62C3066.95 330.88 3073.59 354.983 3073.59 382.928C3073.59 410.524 3066.95 434.452 3053.68 454.712C3040.41 474.623 3021.54 489.993 2997.09 500.822C2972.99 511.301 2944.17 516.541 2910.64 516.541H2800.6L2846.71 473.051V614H2742.96ZM2969.84 614L2878.67 480.387H2989.23L3080.93 614H2969.84ZM2846.71 484.055L2800.6 436.373H2904.35C2926.01 436.373 2942.07 431.658 2952.55 422.226C2963.38 412.795 2968.8 399.695 2968.8 382.928C2968.8 365.812 2963.38 352.538 2952.55 343.106C2942.07 333.675 2926.01 328.959 2904.35 328.959H2800.6L2846.71 281.277V484.055ZM3130.83 614V247.219H3298.5C3332.03 247.219 3360.85 252.634 3384.95 263.462C3409.41 274.291 3428.27 290.01 3441.54 310.62C3454.82 330.88 3461.45 354.983 3461.45 382.928C3461.45 410.524 3454.82 434.452 3441.54 454.712C3428.27 474.973 3409.41 490.692 3384.95 501.87C3360.85 512.699 3332.03 518.113 3298.5 518.113H3188.46L3234.57 473.051V614H3130.83ZM3234.57 484.055L3188.46 436.373H3292.21C3313.87 436.373 3329.94 431.658 3340.42 422.226C3351.24 412.795 3356.66 399.695 3356.66 382.928C3356.66 365.812 3351.24 352.538 3340.42 343.106C3329.94 333.675 3313.87 328.959 3292.21 328.959H3188.46L3234.57 281.277V484.055ZM3512.04 614V247.219H3679.71C3713.24 247.219 3742.06 252.634 3766.16 263.462C3790.62 274.291 3809.48 290.01 3822.75 310.62C3836.03 330.88 3842.66 354.983 3842.66 382.928C3842.66 410.524 3836.03 434.452 3822.75 454.712C3809.48 474.623 3790.62 489.993 3766.16 500.822C3742.06 511.301 3713.24 516.541 3679.71 516.541H3569.67L3615.78 473.051V614H3512.04ZM3738.92 614L3647.75 480.387H3758.3L3850 614H3738.92ZM3615.78 484.055L3569.67 436.373H3673.42C3695.08 436.373 3711.15 431.658 3721.63 422.226C3732.46 412.795 3737.87 399.695 3737.87 382.928C3737.87 365.812 3732.46 352.538 3721.63 343.106C3711.15 333.675 3695.08 328.959 3673.42 328.959H3569.67L3615.78 281.277V484.055ZM3899.9 614V247.219H4003.65V614H3899.9ZM4206.35 621.336C4176.31 621.336 4147.32 617.668 4119.37 610.332C4091.78 602.647 4069.25 592.866 4051.78 580.99L4085.84 504.49C4102.26 514.969 4121.12 523.702 4142.43 530.688C4164.09 537.325 4185.57 540.644 4206.88 540.644C4221.2 540.644 4232.73 539.421 4241.46 536.976C4250.19 534.182 4256.48 530.688 4260.32 526.497C4264.52 521.955 4266.61 516.716 4266.61 510.777C4266.61 502.394 4262.77 495.757 4255.08 490.866C4247.4 485.976 4237.44 481.959 4225.22 478.815C4212.99 475.671 4199.37 472.527 4184.35 469.384C4169.68 466.24 4154.83 462.223 4139.81 457.332C4125.14 452.442 4111.69 446.154 4099.46 438.469C4087.24 430.435 4077.28 420.13 4069.6 407.555C4061.91 394.63 4058.07 378.387 4058.07 358.825C4058.07 336.819 4064.01 316.908 4075.88 299.093C4088.11 281.277 4106.28 266.956 4130.38 256.127C4154.48 245.298 4184.52 239.884 4220.5 239.884C4244.6 239.884 4268.18 242.678 4291.24 248.267C4314.64 253.507 4335.43 261.366 4353.59 271.846L4321.63 348.87C4304.16 339.438 4286.87 332.452 4269.75 327.911C4252.64 323.021 4236.05 320.575 4219.98 320.575C4205.66 320.575 4194.13 322.147 4185.4 325.291C4176.66 328.086 4170.37 331.928 4166.53 336.819C4162.69 341.709 4160.77 347.298 4160.77 353.586C4160.77 361.62 4164.44 368.082 4171.77 372.973C4179.46 377.514 4189.41 381.356 4201.64 384.5C4214.21 387.295 4227.84 390.264 4242.51 393.408C4257.53 396.551 4272.37 400.569 4287.05 405.459C4302.07 410 4315.69 416.288 4327.92 424.322C4340.14 432.007 4349.92 442.312 4357.26 455.236C4364.94 467.812 4368.79 483.705 4368.79 502.918C4368.79 524.226 4362.67 543.962 4350.45 562.127C4338.57 579.942 4320.58 594.264 4296.48 605.092C4272.72 615.921 4242.68 621.336 4206.35 621.336ZM4512.07 389.216H4682.36V466.764H4512.07V389.216ZM4519.41 533.832H4711.18V614H4416.71V247.219H4704.37V327.387H4519.41V533.832Z" fill="white"/>
</svg>
